# This file uses centimeters as units for non-parametric coordinates.

mtllib 123.mtl
g default
v 54.525265 -10.419744 -237.584167
v 46.381962 -10.419744 -253.566315
v 33.698463 -10.419744 -266.249817
v 17.716330 -10.419744 -274.393097
v 0.000000 -10.419744 -277.199097
v -17.716330 -10.419744 -274.393097
v -33.698460 -10.419744 -266.249786
v -46.381943 -10.419744 -253.566299
v -54.525249 -10.419744 -237.584167
v -57.331234 -10.419744 -219.867844
v 57.331219 -10.419744 -219.867844
v 54.525265 -0.131941 -237.584167
v 46.381962 -0.131941 -253.566315
v 33.698463 -0.131941 -266.249817
v 17.716330 -0.131941 -274.393097
v 0.000000 -0.131941 -277.199097
v -17.716330 -0.131941 -274.393097
v -33.698460 -0.131941 -266.249786
v -46.381943 -0.131941 -253.566299
v -54.525249 -0.131941 -237.584167
v -57.331234 -0.131941 -219.867844
v 57.331219 -0.131941 -219.867844
v -54.525249 -10.419744 17.716324
v -46.381943 -10.419744 33.698452
v -33.698452 -10.419744 46.381943
v -17.716324 -10.419744 54.525238
v -0.000002 -10.419744 57.331226
v 17.716320 -10.419744 54.525234
v 33.698444 -10.419744 46.381935
v 46.381931 -10.419744 33.698448
v 54.525230 -10.419744 17.716322
v -54.525249 -0.131941 17.716324
v -46.381943 -0.131941 33.698452
v -33.698452 -0.131941 46.381943
v -17.716324 -0.131941 54.525238
v -0.000002 -0.131941 57.331226
v 17.716320 -0.131941 54.525234
v 33.698444 -0.131941 46.381935
v 46.381931 -0.131941 33.698448
v 54.525230 -0.131941 17.716322
v -57.331234 -0.131941 0.000000
v -57.331234 -10.419744 0.000000
v 57.331219 -10.419744 0.000000
v 57.331219 -0.131941 0.000000
vt 0.943962 0.595851
vt 0.944883 0.595851
vt 0.944883 0.623564
vt 0.943962 0.623564
vt 0.945805 0.595851
vt 0.945805 0.623564
vt 0.946726 0.595851
vt 0.946726 0.623564
vt 0.947648 0.595851
vt 0.947648 0.623564
vt 0.948569 0.595851
vt 0.948569 0.623564
vt 0.949491 0.595851
vt 0.949491 0.623564
vt 0.950412 0.595851
vt 0.950412 0.623564
vt 0.951333 0.595851
vt 0.951333 0.623564
vt 0.952255 0.595851
vt 0.952255 0.623564
vt 0.961469 0.595851
vt 0.962391 0.595851
vt 0.962391 0.623564
vt 0.961469 0.623564
vt 0.962494 0.577563
vt 0.964130 0.580774
vt 0.953176 0.574466
vt 0.959946 0.575015
vt 0.956736 0.573379
vt 0.949617 0.573379
vt 0.946406 0.575015
vt 0.943858 0.577563
vt 0.942222 0.580774
vt 0.941658 0.584333
vt 0.964694 0.584333
vt 0.964130 0.638571
vt 0.962494 0.641782
vt 0.953176 0.644730
vt 0.959946 0.644330
vt 0.956736 0.645966
vt 0.949617 0.645966
vt 0.946406 0.644330
vt 0.943858 0.641782
vt 0.942222 0.638571
vt 0.941658 0.635012
vt 0.964694 0.635012
vt 0.952255 0.595851
vt 0.953176 0.595851
vt 0.953176 0.623564
vt 0.952255 0.623564
vt 0.954098 0.595851
vt 0.954098 0.623564
vt 0.955019 0.595851
vt 0.955019 0.623564
vt 0.955941 0.595851
vt 0.955941 0.623564
vt 0.956862 0.595851
vt 0.956862 0.623564
vt 0.957783 0.595851
vt 0.957783 0.623564
vt 0.958705 0.595851
vt 0.958705 0.623564
vt 0.959626 0.595851
vt 0.959626 0.623564
vt 0.960548 0.595851
vt 0.960548 0.623564
vt 0.961469 0.595851
vt 0.961469 0.623564
vt 0.942222 0.587893
vt 0.941658 0.584333
vt 0.943858 0.591103
vt 0.946406 0.593652
vt 0.949617 0.595288
vt 0.953176 0.595851
vt 0.956736 0.595288
vt 0.959946 0.593652
vt 0.962494 0.591103
vt 0.964130 0.587893
vt 0.964694 0.584333
vt 0.941658 0.635012
vt 0.942222 0.631453
vt 0.943858 0.628242
vt 0.946406 0.625694
vt 0.949617 0.624058
vt 0.953176 0.623494
vt 0.956736 0.624058
vt 0.959946 0.625694
vt 0.962494 0.628242
vt 0.964130 0.631453
vt 0.964694 0.635012
vn 0.951057 0.000000 -0.309016
vn 0.809017 0.000000 -0.587785
vn 0.809017 0.000000 -0.587785
vn 0.951057 0.000000 -0.309016
vn 0.587785 0.000000 -0.809017
vn 0.587785 0.000000 -0.809017
vn 0.309017 0.000000 -0.951057
vn 0.309017 0.000000 -0.951057
vn 0.000000 0.000000 -1.000000
vn 0.000000 0.000000 -1.000000
vn -0.309017 0.000000 -0.951056
vn -0.309017 0.000000 -0.951056
vn -0.587785 0.000000 -0.809017
vn -0.587785 0.000000 -0.809017
vn -0.809017 0.000000 -0.587785
vn -0.809017 0.000000 -0.587785
vn -0.951057 0.000000 -0.309017
vn -0.951057 0.000000 -0.309017
vn -0.999930 0.000000 -0.011810
vn -0.999930 0.000000 -0.011810
vn 0.999930 0.000000 -0.011810
vn 0.999930 0.000000 -0.011810
vn 0.000000 -1.000000 -0.000000
vn 0.000000 -1.000000 -0.000000
vn 0.000000 -1.000000 -0.000000
vn 0.000000 -1.000000 0.000000
vn 0.000000 -1.000000 0.000000
vn 0.000000 -1.000000 0.000000
vn 0.000000 -1.000000 0.000000
vn 0.000000 -1.000000 0.000000
vn 0.000000 -1.000000 0.000000
vn 0.000000 -1.000000 0.000000
vn 0.000000 -1.000000 0.000000
vn 0.000000 -1.000000 0.000000
vn 0.000000 1.000000 0.000000
vn 0.000000 1.000000 0.000000
vn 0.000000 1.000000 0.000000
vn 0.000000 1.000000 0.000000
vn 0.000000 1.000000 0.000000
vn 0.000000 1.000000 0.000000
vn 0.000000 1.000000 0.000000
vn 0.000000 1.000000 -0.000000
vn 0.000000 1.000000 0.000000
vn 0.000000 1.000000 -0.000000
vn 0.000000 1.000000 -0.000000
vn 0.000000 1.000000 0.000000
vn -0.999930 0.000000 0.011810
vn -0.951057 0.000000 0.309017
vn -0.951057 0.000000 0.309017
vn -0.999930 0.000000 0.011810
vn -0.809017 0.000000 0.587785
vn -0.809017 0.000000 0.587785
vn -0.587785 0.000000 0.809017
vn -0.587785 0.000000 0.809017
vn -0.309017 0.000000 0.951057
vn -0.309017 0.000000 0.951057
vn 0.000000 0.000000 1.000000
vn 0.000000 0.000000 1.000000
vn 0.309017 0.000000 0.951057
vn 0.309017 0.000000 0.951057
vn 0.587785 0.000000 0.809017
vn 0.587785 0.000000 0.809017
vn 0.809017 0.000000 0.587785
vn 0.809017 0.000000 0.587785
vn 0.951057 0.000000 0.309017
vn 0.951057 0.000000 0.309017
vn 0.999930 0.000000 0.011810
vn 0.999930 0.000000 0.011810
vn 0.000000 -1.000000 0.000000
vn 0.000000 -1.000000 0.000000
vn 0.000000 -1.000000 0.000000
vn 0.000000 -1.000000 0.000000
vn 0.000000 -1.000000 0.000000
vn 0.000000 -1.000000 0.000000
vn 0.000000 -1.000000 -0.000000
vn 0.000000 -1.000000 0.000000
vn 0.000000 -1.000000 0.000000
vn 0.000000 -1.000000 0.000000
vn 0.000000 -1.000000 0.000000
vn 0.000000 -1.000000 0.000000
vn 0.000000 1.000000 0.000000
vn 0.000000 1.000000 0.000000
vn 0.000000 1.000000 0.000000
vn 0.000000 1.000000 0.000000
vn 0.000000 1.000000 0.000000
vn 0.000000 1.000000 0.000000
vn 0.000000 1.000000 0.000000
vn 0.000000 1.000000 0.000000
vn 0.000000 1.000000 0.000000
vn 0.000000 1.000000 0.000000
vn 0.000000 1.000000 0.000000
vn 0.000000 1.000000 0.000000
vn 0.000000 -1.000000 0.000000
vn 0.000000 -1.000000 0.000000
vn 0.000000 -1.000000 0.000000
vn 0.000000 -1.000000 0.000000
vn 0.000000 -1.000000 0.000000
vn 0.000000 -1.000000 0.000000
vn 0.000000 1.000000 0.000000
vn 0.000000 1.000000 0.000000
vn 0.000000 1.000000 0.000000
vn 0.000000 1.000000 0.000000
vn 0.000000 1.000000 0.000000
vn 0.000000 1.000000 0.000000
s 1
g polySurface3
usemtl blinn1SG
f 1/1/1 2/2/2 13/3/3 12/4/4
f 2/2/2 3/5/5 14/6/6 13/3/3
f 3/5/5 4/7/7 15/8/8 14/6/6
f 4/7/7 5/9/9 16/10/10 15/8/8
f 5/9/9 6/11/11 17/12/12 16/10/10
f 6/11/11 7/13/13 18/14/14 17/12/12
f 7/13/13 8/15/15 19/16/16 18/14/14
f 8/15/15 9/17/17 20/18/18 19/16/16
f 9/17/17 10/19/19 21/20/20 20/18/18
f 11/21/21 1/22/1 12/23/4 22/24/22
s 2
f 2/25/23 1/26/24 5/27/25
f 3/28/26 2/25/23 5/27/25
f 4/29/27 3/28/26 5/27/25
s 3
f 7/31/28 6/30/29 5/27/30
f 8/32/31 7/31/28 5/27/30
f 9/33/32 8/32/31 5/27/30
f 10/34/33 9/33/32 5/27/30
s 2
f 1/26/24 11/35/34 5/27/25
s 4
f 12/36/35 13/37/36 16/38/37
f 13/37/36 14/39/38 16/38/37
f 14/39/38 15/40/39 16/38/37
s 5
f 17/41/40 18/42/41 16/38/42
f 18/42/41 19/43/43 16/38/42
f 19/43/43 20/44/44 16/38/42
f 20/44/44 21/45/45 16/38/42
s 4
f 22/46/46 12/36/35 16/38/37
s 1
f 42/47/47 23/48/48 32/49/49 41/50/50
f 23/48/48 24/51/51 33/52/52 32/49/49
f 24/51/51 25/53/53 34/54/54 33/52/52
f 25/53/53 26/55/55 35/56/56 34/54/54
f 26/55/55 27/57/57 36/58/58 35/56/56
f 27/57/57 28/59/59 37/60/60 36/58/58
f 28/59/59 29/61/61 38/62/62 37/60/60
f 29/61/61 30/63/63 39/64/64 38/62/62
f 30/63/63 31/65/65 40/66/66 39/64/64
f 31/65/65 43/67/67 44/68/68 40/66/66
s 7
f 23/69/69 42/70/70 5/27/71
f 24/71/72 23/69/69 5/27/71
f 25/72/73 24/71/72 5/27/71
f 26/73/74 25/72/73 5/27/71
f 27/74/75 26/73/74 5/27/71
f 28/75/76 27/74/75 5/27/71
f 29/76/77 28/75/76 5/27/71
f 30/77/78 29/76/77 5/27/71
f 31/78/79 30/77/78 5/27/71
f 43/79/80 31/78/79 5/27/71
s 8
f 41/80/81 32/81/82 16/38/83
f 32/81/82 33/82/84 16/38/83
f 33/82/84 34/83/85 16/38/83
f 34/83/85 35/84/86 16/38/83
f 35/84/86 36/85/87 16/38/83
f 36/85/87 37/86/88 16/38/83
f 37/86/88 38/87/89 16/38/83
f 38/87/89 39/88/90 16/38/83
f 39/88/90 40/89/91 16/38/83
f 40/89/91 44/90/92 16/38/83
s 1
f 21/20/20 10/19/19 42/47/47 41/50/50
s off
f 10/34/93 5/27/94 42/70/95
f 5/27/96 11/35/97 43/79/98
s 1
f 11/21/21 22/24/22 44/68/68 43/67/67
s off
f 22/46/99 16/38/100 44/90/101
f 16/38/102 21/45/103 41/80/104
